<svg width="23" height="16" viewBox="0 0 23 16" fill="none" xmlns="http://www.w3.org/2000/svg">
<path d="M16.81 10.4382C16.3113 10.4382 15.8493 10.5628 15.424 10.8122C14.9987 11.0615 14.6613 11.4025 14.412 11.8352C14.1627 12.2678 14.038 12.7335 14.038 13.2322C14.038 13.7308 14.1627 14.1928 14.412 14.6182C14.6613 15.0435 14.9987 15.3808 15.424 15.6302C15.8493 15.8795 16.3113 16.0042 16.81 16.0042C17.3087 16.0042 17.7707 15.8795 18.196 15.6302C18.6213 15.3808 18.9587 15.0435 19.208 14.6182C19.4573 14.1928 19.582 13.7308 19.582 13.2322C19.582 12.7335 19.4573 12.2715 19.208 11.8462C18.9587 11.4208 18.6213 11.0798 18.196 10.8232C17.7707 10.5665 17.3087 10.4382 16.81 10.4382ZM16.81 14.6182C16.4433 14.6182 16.1207 14.4788 15.842 14.2002C15.5633 13.9215 15.424 13.5952 15.424 13.2212C15.424 12.8472 15.5597 12.5245 15.831 12.2532C16.1023 11.9818 16.4287 11.8462 16.81 11.8462C17.1913 11.8462 17.5177 11.9818 17.789 12.2532C18.0603 12.5245 18.196 12.8508 18.196 13.2322C18.196 13.6135 18.0603 13.9398 17.789 14.2112C17.5177 14.4825 17.1913 14.6182 16.81 14.6182ZM7.35001 10.4382C6.85135 10.4382 6.38935 10.5628 5.96401 10.8122C5.53868 11.0615 5.20135 11.4025 4.95201 11.8352C4.70268 12.2678 4.57801 12.7335 4.57801 13.2322C4.57801 13.7308 4.70268 14.1928 4.95201 14.6182C5.20135 15.0435 5.53868 15.3808 5.96401 15.6302C6.38935 15.8795 6.85135 16.0042 7.35001 16.0042C7.84868 16.0042 8.31068 15.8795 8.73601 15.6302C9.16135 15.3808 9.49868 15.0435 9.74801 14.6182C9.99735 14.1928 10.122 13.7308 10.122 13.2322C10.122 12.7335 9.99735 12.2715 9.74801 11.8462C9.49868 11.4208 9.16135 11.0798 8.73601 10.8232C8.31068 10.5665 7.84868 10.4382 7.35001 10.4382ZM7.35001 14.6182C6.96868 14.6182 6.64235 14.4825 6.37101 14.2112C6.09968 13.9398 5.96401 13.6135 5.96401 13.2322C5.96401 12.8508 6.09968 12.5245 6.37101 12.2532C6.64235 11.9818 6.96868 11.8462 7.35001 11.8462C7.73135 11.8462 8.05768 11.9818 8.32901 12.2532C8.60035 12.5245 8.73601 12.8472 8.73601 13.2212C8.73601 13.5952 8.60035 13.9215 8.32901 14.2002C8.05768 14.4788 7.73135 14.6182 7.35001 14.6182ZM18.68 2.51815C18.6213 2.40082 18.537 2.30548 18.427 2.23215C18.317 2.15882 18.196 2.12215 18.064 2.12215H14.412V3.50815H17.646L19.516 7.27015L20.77 6.65415L18.68 2.51815ZM5.26001 12.5502H2.86201C2.67135 12.5502 2.50635 12.6162 2.36701 12.7482C2.22768 12.8802 2.15801 13.0452 2.15801 13.2432C2.15801 13.4412 2.22768 13.6062 2.36701 13.7382C2.50635 13.8702 2.67135 13.9362 2.86201 13.9362H5.26001C5.45068 13.9362 5.61568 13.8702 5.75501 13.7382C5.89435 13.6062 5.96401 13.4448 5.96401 13.2542C5.96401 13.0635 5.89435 12.8985 5.75501 12.7592C5.61568 12.6198 5.45068 12.5502 5.26001 12.5502ZM22.046 8.30415L20.682 6.56615C20.5353 6.37548 20.3593 6.28015 20.154 6.28015H15.116V1.44015C15.116 1.24948 15.0463 1.08448 14.907 0.94515C14.7677 0.805818 14.6027 0.736151 14.412 0.736151H2.86201C2.67135 0.736151 2.50635 0.802151 2.36701 0.934151C2.22768 1.06615 2.15801 1.23115 2.15801 1.42915C2.15801 1.62715 2.22401 1.79215 2.35601 1.92415C2.48801 2.05615 2.65668 2.12215 2.86201 2.12215H13.73V6.98415C13.73 7.17482 13.796 7.33615 13.928 7.46815C14.06 7.60015 14.2213 7.66615 14.412 7.66615H19.802L20.814 8.98615V12.5502H18.9C18.7093 12.5502 18.5443 12.6162 18.405 12.7482C18.2657 12.8802 18.196 13.0452 18.196 13.2432C18.196 13.4412 18.2657 13.6062 18.405 13.7382C18.5443 13.8702 18.7093 13.9362 18.9 13.9362H21.518C21.7087 13.9362 21.87 13.8702 22.002 13.7382C22.134 13.6062 22.2 13.4448 22.2 13.2542V8.74415C22.2 8.56815 22.1487 8.42148 22.046 8.30415ZM5.21601 9.03015H2.02601C1.83535 9.03015 1.67401 9.09982 1.54201 9.23915C1.41001 9.37848 1.34401 9.54348 1.34401 9.73415C1.34401 9.92482 1.41001 10.0862 1.54201 10.2182C1.67401 10.3502 1.83535 10.4162 2.02601 10.4162H5.21601C5.40668 10.4162 5.57168 10.3502 5.71101 10.2182C5.85035 10.0862 5.92001 9.92482 5.92001 9.73415C5.92001 9.54348 5.85035 9.37848 5.71101 9.23915C5.57168 9.09982 5.40668 9.03015 5.21601 9.03015ZM6.80001 6.30215H0.904012C0.713346 6.30215 0.548346 6.37182 0.409012 6.51115C0.269679 6.65048 0.200012 6.81548 0.200012 7.00615C0.200012 7.19682 0.269679 7.35815 0.409012 7.49015C0.548346 7.62215 0.713346 7.68815 0.904012 7.68815H6.80001C6.99068 7.68815 7.15568 7.62215 7.29501 7.49015C7.43435 7.35815 7.50401 7.19682 7.50401 7.00615C7.50401 6.81548 7.43435 6.65048 7.29501 6.51115C7.15568 6.37182 6.99068 6.30215 6.80001 6.30215ZM7.94401 3.59615H2.02601C1.83535 3.59615 1.67401 3.66215 1.54201 3.79415C1.41001 3.92615 1.34401 4.08748 1.34401 4.27815C1.34401 4.46882 1.41001 4.63382 1.54201 4.77315C1.67401 4.91248 1.83535 4.98215 2.02601 4.98215H7.94401C8.13468 4.98215 8.29601 4.91248 8.42801 4.77315C8.56001 4.63382 8.62601 4.46882 8.62601 4.27815C8.62601 4.08748 8.56001 3.92615 8.42801 3.79415C8.29601 3.66215 8.13468 3.59615 7.94401 3.59615Z" fill="#202435"/>
</svg>
