<svg width="22" height="23" viewBox="0 0 22 23" fill="none" xmlns="http://www.w3.org/2000/svg">
<path d="M20.1881 11.6561C20.0854 11.4655 20.0854 11.2748 20.1881 11.0841L21.0021 9.41212C21.2367 8.94278 21.2734 8.46245 21.1121 7.97112C20.9507 7.47978 20.6354 7.10945 20.1661 6.86012L18.5161 6.00212C18.3254 5.89945 18.2154 5.74545 18.1861 5.54012L17.8561 3.69212C17.7681 3.17878 17.5151 2.77178 17.0971 2.47112C16.6791 2.17045 16.2134 2.05678 15.7001 2.13012L13.8521 2.39412C13.6467 2.42345 13.4707 2.36478 13.3241 2.21812L11.9821 0.920116C11.6154 0.553452 11.1717 0.370117 10.6511 0.370117C10.1304 0.370117 9.67938 0.553452 9.29805 0.920116L7.95605 2.21812C7.80938 2.36478 7.63338 2.42345 7.42805 2.39412L5.58005 2.13012C5.06672 2.05678 4.60105 2.17045 4.18305 2.47112C3.76505 2.77178 3.51205 3.17878 3.42405 3.69212L3.09405 5.54012C3.06472 5.74545 2.95472 5.89945 2.76405 6.00212L1.11405 6.86012C0.644717 7.10945 0.329384 7.47978 0.168051 7.97112C0.00671726 8.46245 0.0433839 8.94278 0.278051 9.41212L1.11405 11.0841C1.21672 11.2748 1.21672 11.4655 1.11405 11.6561L0.278051 13.3281C0.0433839 13.7975 0.00671726 14.2741 0.168051 14.7581C0.329384 15.2421 0.644717 15.6088 1.11405 15.8581L2.76405 16.7381C2.95472 16.8408 3.06472 16.9948 3.09405 17.2001L3.42405 19.0481C3.49738 19.5028 3.71005 19.8805 4.06205 20.1811C4.41405 20.4818 4.82472 20.6321 5.29405 20.6321C5.41138 20.6321 5.50672 20.6248 5.58005 20.6101L7.42805 20.3461C7.63338 20.3168 7.80938 20.3755 7.95605 20.5221L9.29805 21.8201C9.66472 22.1868 10.1121 22.3701 10.6401 22.3701C11.1681 22.3701 11.6154 22.1868 11.9821 21.8201L13.3241 20.5221C13.4707 20.3755 13.6467 20.3168 13.8521 20.3461L15.7001 20.6101C16.2134 20.6835 16.6791 20.5698 17.0971 20.2691C17.5151 19.9685 17.7681 19.5615 17.8561 19.0481L18.1861 17.2001C18.2154 16.9948 18.3254 16.8408 18.5161 16.7381L20.1661 15.8581C20.6354 15.6088 20.9507 15.2421 21.1121 14.7581C21.2734 14.2741 21.2367 13.7975 21.0021 13.3281L20.1881 11.6561ZM19.5721 14.7581L17.9221 15.6161C17.6581 15.7628 17.4417 15.9535 17.2731 16.1881C17.1044 16.4228 16.9907 16.6868 16.9321 16.9801L16.6241 18.8281C16.5947 19.0041 16.5067 19.1435 16.3601 19.2461C16.2134 19.3488 16.0521 19.3855 15.8761 19.3561L14.0281 19.0921C13.7494 19.0481 13.4671 19.0738 13.1811 19.1691C12.8951 19.2645 12.6494 19.4148 12.4441 19.6201L11.1021 20.9181C10.9847 21.0355 10.8344 21.0941 10.6511 21.0941C10.4677 21.0941 10.3174 21.0355 10.2001 20.9181L8.85805 19.6201C8.46205 19.2535 8.01472 19.0701 7.51605 19.0701L7.25205 19.0921L5.40405 19.3561C5.22805 19.3855 5.06672 19.3488 4.92005 19.2461C4.77338 19.1435 4.68538 19.0041 4.65605 18.8281L4.34805 16.9801C4.28938 16.6868 4.17572 16.4228 4.00705 16.1881C3.83838 15.9535 3.62205 15.7628 3.35805 15.6161L1.70805 14.7581C1.54672 14.6848 1.44038 14.5638 1.38905 14.3951C1.33772 14.2265 1.34872 14.0615 1.42205 13.9001L2.23605 12.2061C2.36805 11.9421 2.43405 11.6635 2.43405 11.3701C2.43405 11.0768 2.36805 10.7981 2.23605 10.5341L1.42205 8.84012C1.34872 8.67878 1.33772 8.51378 1.38905 8.34512C1.44038 8.17645 1.54672 8.05545 1.70805 7.98212L3.35805 7.12412C3.62205 6.97745 3.83838 6.78678 4.00705 6.55212C4.17572 6.31745 4.28938 6.05345 4.34805 5.76012L4.65605 3.91212C4.68538 3.73612 4.77338 3.59678 4.92005 3.49412C5.06672 3.39145 5.22805 3.35478 5.40405 3.38412L7.25205 3.64812C7.53072 3.69212 7.81305 3.66645 8.09905 3.57112C8.38505 3.47578 8.63805 3.32545 8.85805 3.12012L10.2001 1.82212C10.3174 1.70478 10.4677 1.64612 10.6511 1.64612C10.8344 1.64612 10.9847 1.70478 11.1021 1.82212L12.4441 3.12012C12.6494 3.32545 12.8951 3.47578 13.1811 3.57112C13.4671 3.66645 13.7494 3.69212 14.0281 3.64812L15.8761 3.38412C16.0521 3.35478 16.2134 3.39145 16.3601 3.49412C16.5067 3.59678 16.5947 3.73612 16.6241 3.91212L16.9321 5.76012C16.9907 6.05345 17.1044 6.31745 17.2731 6.55212C17.4417 6.78678 17.6581 6.97745 17.9221 7.12412L19.5721 7.98212C19.7334 8.05545 19.8397 8.17645 19.8911 8.34512C19.9424 8.51378 19.9314 8.67878 19.8581 8.84012L19.0441 10.5341C18.9121 10.7981 18.8461 11.0768 18.8461 11.3701C18.8461 11.6635 18.9121 11.9421 19.0441 12.2061L19.8581 13.9001C19.9314 14.0615 19.9424 14.2265 19.8911 14.3951C19.8397 14.5638 19.7334 14.6848 19.5721 14.7581ZM15.2821 6.72812C15.1647 6.61078 15.0144 6.55212 14.8311 6.55212C14.6477 6.55212 14.4974 6.61078 14.3801 6.72812L5.99805 15.1101C5.88072 15.2275 5.82205 15.3741 5.82205 15.5501C5.82205 15.7261 5.88438 15.8765 6.00905 16.0011C6.13372 16.1258 6.27672 16.1881 6.43805 16.1881C6.59938 16.1881 6.75338 16.1295 6.90005 16.0121L15.2821 7.63012C15.3994 7.51278 15.4581 7.36612 15.4581 7.19012C15.4581 7.01412 15.3994 6.86012 15.2821 6.72812ZM8.11005 5.65012C7.68472 5.65012 7.29238 5.75645 6.93305 5.96912C6.57372 6.18178 6.29138 6.46412 6.08605 6.81612C5.88072 7.16812 5.77805 7.55678 5.77805 7.98212C5.77805 8.40745 5.88072 8.79612 6.08605 9.14812C6.29138 9.50012 6.57372 9.78245 6.93305 9.99512C7.29238 10.2078 7.68472 10.3141 8.11005 10.3141C8.53538 10.3141 8.92405 10.2078 9.27605 9.99512C9.62805 9.78245 9.90672 9.50012 10.1121 9.14812C10.3174 8.79612 10.4201 8.40745 10.4201 7.98212C10.4201 7.55678 10.3174 7.16812 10.1121 6.81612C9.90672 6.46412 9.62438 6.18178 9.26505 5.96912C8.90572 5.75645 8.52072 5.65012 8.11005 5.65012ZM8.11005 9.03812C7.81672 9.03812 7.56738 8.93545 7.36205 8.73012C7.15672 8.52478 7.05405 8.27545 7.05405 7.98212C7.05405 7.68878 7.15672 7.43945 7.36205 7.23412C7.56738 7.02878 7.81672 6.92612 8.11005 6.92612C8.40338 6.92612 8.65272 7.02878 8.85805 7.23412C9.06338 7.43945 9.16605 7.68878 9.16605 7.98212C9.16605 8.27545 9.06338 8.52478 8.85805 8.73012C8.65272 8.93545 8.40338 9.03812 8.11005 9.03812ZM13.1701 12.4261C12.7447 12.4261 12.3561 12.5288 12.0041 12.7341C11.6521 12.9395 11.3734 13.2218 11.1681 13.5811C10.9627 13.9405 10.8601 14.3328 10.8601 14.7581C10.8601 15.4035 11.0837 15.9498 11.5311 16.3971C11.9784 16.8445 12.5247 17.0681 13.1701 17.0681C13.5954 17.0681 13.9877 16.9655 14.3471 16.7601C14.7064 16.5548 14.9887 16.2761 15.1941 15.9241C15.3994 15.5721 15.5021 15.1835 15.5021 14.7581C15.5021 14.3328 15.3994 13.9441 15.1941 13.5921C14.9887 13.2401 14.7064 12.9578 14.3471 12.7451C13.9877 12.5325 13.5954 12.4261 13.1701 12.4261ZM13.1701 15.8141C12.8914 15.8141 12.6457 15.7078 12.4331 15.4951C12.2204 15.2825 12.1141 15.0331 12.1141 14.7471C12.1141 14.4611 12.2204 14.2155 12.4331 14.0101C12.6457 13.8048 12.8951 13.7021 13.1811 13.7021C13.4671 13.7021 13.7127 13.8048 13.9181 14.0101C14.1234 14.2155 14.2261 14.4648 14.2261 14.7581C14.2261 15.0515 14.1234 15.3008 13.9181 15.5061C13.7127 15.7115 13.4634 15.8141 13.1701 15.8141Z" fill="#202435"/>
</svg>
