<svg width="18" height="15" viewBox="0 0 18 15" fill="none" xmlns="http://www.w3.org/2000/svg">
<path d="M16.722 12.972V5.26804C16.506 5.50804 16.272 5.72404 16.02 5.91604C14.232 7.29604 12.804 8.43004 11.736 9.31804C11.4 9.60604 11.124 9.82804 10.908 9.98404C10.692 10.14 10.404 10.308 10.044 10.488C9.684 10.668 9.342 10.746 9.018 10.722H8.982C8.67 10.722 8.328 10.644 7.956 10.488C7.584 10.332 7.296 10.164 7.092 9.98404C6.888 9.80404 6.612 9.58204 6.264 9.31804C5.208 8.43004 3.78 7.29604 1.98 5.91604C1.728 5.72404 1.494 5.50804 1.278 5.26804V12.972C1.278 13.056 1.314 13.134 1.386 13.206C1.458 13.278 1.53 13.308 1.602 13.296H16.398C16.482 13.296 16.554 13.266 16.614 13.206C16.674 13.146 16.71 13.068 16.722 12.972ZM16.722 2.42404V2.17204L16.686 1.92004L16.632 1.83004C16.596 1.77004 16.566 1.74604 16.542 1.75804C16.518 1.77004 16.47 1.75804 16.398 1.72204H1.602C1.518 1.72204 1.446 1.75804 1.386 1.83004C1.326 1.90204 1.29 1.97404 1.278 2.04604C1.278 3.17404 1.776 4.12804 2.772 4.90804C4.056 5.91604 5.394 6.97204 6.786 8.07604C6.834 8.11204 6.954 8.21404 7.146 8.38204C7.338 8.55004 7.488 8.67604 7.596 8.76004C7.704 8.84404 7.854 8.94604 8.046 9.06604C8.238 9.18604 8.406 9.28204 8.55 9.35404C8.694 9.42604 8.838 9.45604 8.982 9.44404H9.018C9.15 9.44404 9.294 9.41404 9.45 9.35404C9.606 9.29404 9.774 9.19804 9.954 9.06604C10.134 8.93404 10.284 8.83204 10.404 8.76004C10.524 8.68804 10.674 8.56204 10.854 8.38204C11.034 8.20204 11.154 8.10004 11.214 8.07604C12.606 6.97204 13.95 5.91604 15.246 4.90804C15.606 4.62004 15.942 4.23004 16.254 3.73804C16.566 3.24604 16.722 2.80804 16.722 2.42404ZM18 2.04604V12.972C18 13.416 17.844 13.794 17.532 14.106C17.22 14.418 16.842 14.58 16.398 14.592H1.602C1.17 14.592 0.792002 14.43 0.468002 14.106C0.144002 13.782 -0.011998 13.404 1.98802e-06 12.972V2.04604C1.98802e-06 1.60204 0.156002 1.22404 0.468002 0.912042C0.780002 0.600041 1.158 0.444041 1.602 0.444041H16.398C16.842 0.444041 17.22 0.600041 17.532 0.912042C17.844 1.22404 18 1.60204 18 2.04604Z" fill="#C2C2D3"/>
</svg>
