<svg width="21" height="23" viewBox="0 0 21 23" fill="none" xmlns="http://www.w3.org/2000/svg">
<path d="M13.91 9.85212V7.74012L12.216 3.80212V0.370117H2.40401V3.80212L0.622009 7.74012V22.3701H20.378V9.85212H13.91ZM17.166 18.4321C16.7847 18.0948 16.352 17.9261 15.868 17.9261C15.384 17.9261 14.9513 18.0948 14.57 18.4321C14.2033 18.0948 13.778 17.9261 13.294 17.9261C13.1033 17.9261 12.8833 17.9628 12.634 18.0361V14.1421H19.102V18.0361C18.8527 17.9628 18.6327 17.9261 18.442 17.9261C17.958 17.9261 17.5327 18.0948 17.166 18.4321ZM19.102 12.8441H12.634V11.1501H19.102V12.8441ZM11.358 9.85212V18.5201H1.89801V8.53212H12.612V9.85212H11.358ZM12.282 7.23412H2.27201L3.46001 4.57212H11.138L12.282 7.23412ZM3.70201 1.66812H10.918V3.29612H3.70201V1.66812ZM1.89801 21.0721V19.8181H11.358V21.0721H1.89801ZM12.634 21.0721V19.8621C12.634 19.6861 12.7 19.5358 12.832 19.4111C12.964 19.2865 13.118 19.2241 13.294 19.2241C13.47 19.2241 13.6203 19.2865 13.745 19.4111C13.8697 19.5358 13.932 19.6861 13.932 19.8621V21.0721H12.634ZM15.23 21.0721V19.8621C15.23 19.6861 15.2923 19.5358 15.417 19.4111C15.5417 19.2865 15.692 19.2241 15.868 19.2241C16.044 19.2241 16.1943 19.2865 16.319 19.4111C16.4437 19.5358 16.506 19.6861 16.506 19.8621V21.0721H15.23ZM19.102 21.0721H17.804V19.8621C17.804 19.6861 17.8663 19.5358 17.991 19.4111C18.1157 19.2865 18.266 19.2241 18.442 19.2241C18.618 19.2241 18.772 19.2865 18.904 19.4111C19.036 19.5358 19.102 19.6861 19.102 19.8621V21.0721Z" fill="#202435"/>
</svg>
