<svg width="21" height="21" viewBox="0 0 21 21" fill="none" xmlns="http://www.w3.org/2000/svg">
<g clip-path="url(#clip0_1_427)">
<path d="M20.45 10.4L15.87 8.86C15.7766 8.82 15.6833 8.82 15.59 8.86L11.01 10.4C10.93 10.4267 10.8633 10.4767 10.81 10.55C10.7566 10.6233 10.73 10.7067 10.73 10.8V14.28C10.73 15.4933 11.1366 16.6267 11.95 17.68C12.5233 18.44 13.2833 19.1267 14.23 19.74C14.75 20.0733 15.1966 20.3133 15.57 20.46C15.61 20.4867 15.6666 20.5 15.74 20.5C15.8133 20.5 15.8633 20.4933 15.89 20.48L15.93 20.46C16.9033 20.0067 17.77 19.44 18.53 18.76C19.9966 17.44 20.73 15.9467 20.73 14.28V10.8C20.73 10.7067 20.7033 10.6233 20.65 10.55C20.5966 10.4767 20.53 10.4267 20.45 10.4ZM19.89 14.28C19.89 15.2267 19.59 16.1267 18.99 16.98C18.5366 17.62 17.93 18.2133 17.17 18.76C16.69 19.1067 16.21 19.3933 15.73 19.62C14.8366 19.18 14.0433 18.64 13.35 18C12.1633 16.8667 11.57 15.6267 11.57 14.28V11.1L15.73 9.7L19.89 11.1V14.28ZM15.35 15.3L17.93 12.7C18.01 12.62 18.1066 12.58 18.22 12.58C18.3333 12.58 18.4366 12.62 18.53 12.7C18.6233 12.78 18.6666 12.88 18.66 13C18.6533 13.12 18.61 13.22 18.53 13.3L15.61 16.22C15.53 16.3 15.43 16.34 15.31 16.34H15.29C15.1566 16.3133 15.0566 16.26 14.99 16.18L13.33 14.1C13.25 14.0067 13.2166 13.9033 13.23 13.79C13.2433 13.6767 13.2966 13.5833 13.39 13.51C13.4833 13.4367 13.5866 13.4067 13.7 13.42C13.8133 13.4333 13.9033 13.4867 13.97 13.58L15.35 15.3ZM11.71 20.04C11.71 20.16 11.67 20.2633 11.59 20.35C11.51 20.4367 11.41 20.4833 11.29 20.49C11.17 20.4967 10.9833 20.5 10.73 20.5H8.64998C7.43665 20.4867 6.39331 20.0533 5.51998 19.2C4.64665 18.3467 3.88998 17.02 3.24998 15.22C2.92998 14.3267 2.58998 13.6067 2.22998 13.06C2.00331 12.74 1.72331 12.4267 1.38998 12.12C1.17665 11.9333 1.02331 11.7733 0.92998 11.64C0.796647 11.4267 0.72998 11.1867 0.72998 10.92C0.72998 10.6533 0.82998 10.4133 1.02998 10.2C1.37665 9.84 1.96998 9.66 2.80998 9.66C3.38331 9.66 3.94998 9.83333 4.50998 10.18C4.93665 10.46 5.34331 10.8267 5.72998 11.28V3C5.72998 2.53333 5.89331 2.14 6.21998 1.82C6.54665 1.5 6.93665 1.34 7.38998 1.34C7.72331 1.34 8.03665 1.43333 8.32998 1.62C8.43665 1.28667 8.63331 1.01667 8.91998 0.810001C9.20665 0.603334 9.52998 0.5 9.88998 0.5C10.25 0.5 10.5766 0.603334 10.87 0.810001C11.1633 1.01667 11.3633 1.28667 11.47 1.62C11.7366 1.43333 12.0433 1.34 12.39 1.34C12.8566 1.34 13.2533 1.50333 13.58 1.83C13.9066 2.15667 14.07 2.54667 14.07 3V4.06C14.3233 3.91333 14.5966 3.84 14.89 3.84C15.3566 3.84 15.7533 4.00333 16.08 4.33C16.4066 4.65667 16.57 5.04667 16.57 5.5V6.8C16.57 6.90667 16.5266 7 16.44 7.08C16.3533 7.16 16.2566 7.2 16.15 7.2C16.0433 7.2 15.9466 7.16 15.86 7.08C15.7733 7 15.73 6.90667 15.73 6.8V5.5C15.73 5.27333 15.6466 5.07667 15.48 4.91C15.3133 4.74333 15.1166 4.66 14.89 4.66C14.6633 4.66 14.47 4.74333 14.31 4.91C14.15 5.07667 14.07 5.27333 14.07 5.5V7.32C14.07 7.42667 14.0266 7.52333 13.94 7.61C13.8533 7.69667 13.7566 7.74 13.65 7.74C13.5433 7.74 13.4466 7.69667 13.36 7.61C13.2733 7.52333 13.23 7.42667 13.23 7.32V3C13.23 2.77333 13.1466 2.57667 12.98 2.41C12.8133 2.24333 12.6166 2.16 12.39 2.16C12.1633 2.16 11.97 2.24333 11.81 2.41C11.65 2.57667 11.57 2.77333 11.57 3V8.16C11.57 8.26667 11.5266 8.36333 11.44 8.45C11.3533 8.53667 11.2566 8.58 11.15 8.58C11.0433 8.58 10.9466 8.53667 10.86 8.45C10.7733 8.36333 10.73 8.26667 10.73 8.16V2.16C10.73 1.93333 10.6466 1.74 10.48 1.58C10.3133 1.42 10.1166 1.34 9.88998 1.34C9.66331 1.34 9.46998 1.42 9.30998 1.58C9.14998 1.74 9.06998 1.93333 9.06998 2.16V10.08C9.06998 10.2 9.02665 10.3 8.93998 10.38C8.85331 10.46 8.75665 10.5 8.64998 10.5C8.54331 10.5 8.44665 10.46 8.35998 10.38C8.27331 10.3 8.22998 10.2 8.22998 10.08V3C8.22998 2.77333 8.14665 2.57667 7.97998 2.41C7.81331 2.24333 7.61665 2.16 7.38998 2.16C7.16331 2.16 6.96998 2.24333 6.80998 2.41C6.64998 2.57667 6.56998 2.77333 6.56998 3V12.58C6.56998 12.6733 6.53998 12.7567 6.47998 12.83C6.41998 12.9033 6.34331 12.9533 6.24998 12.98C6.15665 13.0067 6.06665 13 5.97998 12.96C5.89331 12.92 5.82998 12.86 5.78998 12.78L5.76998 12.74C5.48998 12.2867 5.17665 11.88 4.82998 11.52C4.16331 10.84 3.48998 10.5 2.80998 10.5C2.39665 10.5 2.06998 10.5533 1.82998 10.66C1.65665 10.74 1.56998 10.83 1.56998 10.93C1.56998 11.03 1.59331 11.1167 1.63998 11.19C1.68665 11.2633 1.78998 11.3733 1.94998 11.52C2.32331 11.8667 2.62998 12.2133 2.86998 12.56C3.30998 13.1733 3.69665 13.9667 4.02998 14.94C4.61665 16.5533 5.28331 17.7433 6.02998 18.51C6.77665 19.2767 7.64998 19.66 8.64998 19.66H11.27C11.3766 19.6467 11.4733 19.6767 11.56 19.75C11.6466 19.8233 11.6966 19.92 11.71 20.04Z" fill="#3E445A"/>
</g>
<defs>
<clipPath id="clip0_1_427">
<rect width="20" height="20" fill="white" transform="matrix(1 0 0 -1 0.72998 20.5)"/>
</clipPath>
</defs>
</svg>
