<svg width="36" height="37" viewBox="0 0 36 37" fill="none" xmlns="http://www.w3.org/2000/svg">
<g clip-path="url(#clip0_1_6571)">
<path d="M4.41797 14.072C4.41797 10.328 5.73797 7.124 8.37797 4.46C11.018 1.796 14.222 0.476002 17.99 0.5C21.758 0.524002 24.962 1.844 27.602 4.46C30.242 7.076 31.562 10.28 31.562 14.072C31.562 17.024 30.926 19.34 29.654 21.02L17.99 36.5L6.32597 21.02C5.05397 19.34 4.41797 17.024 4.41797 14.072ZM12.302 14.072C12.302 15.656 12.854 17 13.958 18.104C15.062 19.208 16.406 19.76 17.99 19.76C19.574 19.76 20.918 19.208 22.022 18.104C23.126 17 23.678 15.656 23.678 14.072C23.678 12.488 23.126 11.144 22.022 10.04C20.918 8.936 19.574 8.384 17.99 8.384C16.406 8.384 15.062 8.936 13.958 10.04C12.854 11.144 12.302 12.488 12.302 14.072Z" fill="#35AFA0"/>
</g>
<defs>
<clipPath id="clip0_1_6571">
<rect width="36" height="36" fill="white" transform="matrix(1 0 0 -1 -0.00976562 36.5)"/>
</clipPath>
</defs>
</svg>
