<svg width="23" height="22" viewBox="0 0 23 22" fill="none" xmlns="http://www.w3.org/2000/svg">
<g opacity="0.5">
<path d="M10.3401 21.956C9.26939 21.956 8.25006 21.7543 7.28206 21.351C6.31406 20.9477 5.44873 20.3647 4.68606 19.602C3.8354 18.7513 3.1974 17.8273 2.77206 16.83C2.24406 15.6567 1.98006 14.476 1.98006 13.288C1.95073 11.8947 2.25873 10.5087 2.90406 9.12999C3.5494 7.75133 4.4954 6.43866 5.74206 5.19199C6.37273 4.54666 7.1794 3.86466 8.16206 3.14599C9.42339 2.23666 10.6627 1.51066 11.8801 0.967995C13.5667 0.234661 15.0921 -0.0806732 16.4561 0.0219936C17.8201 0.12466 18.9787 0.645327 19.9321 1.58399C20.1667 1.81866 20.3611 2.11199 20.5151 2.46399C20.6691 2.81599 20.7754 3.18999 20.8341 3.58599C20.9661 4.59799 20.7607 5.52933 20.2181 6.37999C19.4261 7.65599 18.8761 8.82566 18.5681 9.88899C18.2601 10.9523 18.1647 11.9827 18.2821 12.98C18.4287 14.212 18.3041 15.4073 17.9081 16.566C17.5121 17.7247 16.8741 18.744 15.9941 19.624C15.2314 20.372 14.3661 20.9477 13.3981 21.351C12.4301 21.7543 11.4107 21.956 10.3401 21.956ZM15.9501 1.27599C14.8941 1.27599 13.7134 1.56933 12.4081 2.15599C11.2787 2.65466 10.1201 3.33666 8.93206 4.20199C8.0374 4.84733 7.27473 5.47799 6.64406 6.09399C5.14806 7.58999 4.15073 9.16666 3.65206 10.824C3.18273 12.3053 3.14606 13.7647 3.54206 15.202C3.90873 16.522 4.59073 17.688 5.58806 18.7C6.4534 19.5653 7.46539 20.1447 8.62406 20.438C9.76806 20.746 10.9047 20.746 12.0341 20.438C13.2074 20.1447 14.2267 19.5653 15.0921 18.7C15.8254 17.9667 16.3571 17.1123 16.6871 16.137C17.0171 15.1617 17.1234 14.1607 17.0061 13.134C16.8594 11.9753 16.9584 10.802 17.3031 9.61399C17.6477 8.42599 18.2527 7.12799 19.1181 5.71999C19.3821 5.27999 19.5361 4.81799 19.5801 4.33399C19.6094 3.93799 19.5581 3.55666 19.4261 3.18999C19.3087 2.89666 19.1694 2.66933 19.0081 2.50799C18.1867 1.68666 17.1674 1.27599 15.9501 1.27599ZM10.3401 19.382C9.60673 19.382 8.91006 19.2427 8.25006 18.964C7.59006 18.6853 7.01073 18.2893 6.51206 17.776C5.89606 17.1747 5.4194 16.478 5.08206 15.686C4.74473 14.894 4.56873 14.0873 4.55406 13.266C4.5394 12.3127 4.74473 11.3373 5.17006 10.34C5.6834 9.19599 6.4754 8.08866 7.54606 7.01799C8.20606 6.35799 9.00539 5.69799 9.94406 5.03799C10.9707 4.31933 11.9827 3.74733 12.9801 3.32199C14.1094 2.82333 15.0994 2.57399 15.9501 2.57399C16.5367 2.57399 17.0427 2.69133 17.4681 2.92599C17.8347 3.13133 18.0767 3.43566 18.1941 3.83899C18.3114 4.24233 18.2601 4.63466 18.0401 5.01599L18.0181 5.03799C17.0794 6.54866 16.4231 7.97499 16.0491 9.31699C15.6751 10.659 15.5687 11.9827 15.7301 13.288C15.8327 14.124 15.7484 14.9343 15.4771 15.719C15.2057 16.5037 14.7694 17.1967 14.1681 17.798C13.6547 18.3113 13.0681 18.7037 12.4081 18.975C11.7481 19.2463 11.0587 19.382 10.3401 19.382ZM15.9501 3.87199C15.2461 3.87199 14.3954 4.09933 13.3981 4.55399C12.5181 4.93533 11.6087 5.45599 10.6701 6.11599C9.80473 6.71733 9.07139 7.31866 8.47006 7.91999C7.50206 8.88799 6.79806 9.87066 6.35806 10.868C6.00606 11.66 5.83006 12.452 5.83006 13.244C5.84473 13.904 5.98773 14.5493 6.25906 15.18C6.5304 15.8107 6.9154 16.3753 7.41406 16.874C7.81006 17.27 8.25739 17.5707 8.75606 17.776C9.25473 17.9813 9.78273 18.084 10.3401 18.084C10.8974 18.084 11.4254 17.9813 11.9241 17.776C12.4227 17.5707 12.8701 17.27 13.2661 16.874C13.7207 16.4193 14.0507 15.8913 14.2561 15.29C14.4614 14.6887 14.5274 14.0727 14.4541 13.442C14.2781 12.0047 14.3917 10.5453 14.7951 9.06399C15.1984 7.58266 15.9061 6.01333 16.9181 4.35599C16.9621 4.29733 16.9767 4.24233 16.9621 4.19099C16.9474 4.13966 16.9107 4.09199 16.8521 4.04799C16.6321 3.93066 16.3314 3.87199 15.9501 3.87199ZM10.3841 16.126C9.81206 16.126 9.32439 15.9243 8.92106 15.521C8.51773 15.1177 8.31606 14.63 8.31606 14.058C8.31606 13.486 8.51773 12.9983 8.92106 12.595C9.32439 12.1917 9.81206 11.99 10.3841 11.99C10.9561 11.99 11.4437 12.1917 11.8471 12.595C12.2504 12.9983 12.4521 13.486 12.4521 14.058C12.4521 14.63 12.2504 15.1177 11.8471 15.521C11.4437 15.9243 10.9561 16.126 10.3841 16.126ZM10.3841 13.288C10.1787 13.288 9.99906 13.3613 9.84506 13.508C9.69106 13.6547 9.61406 13.838 9.61406 14.058C9.61406 14.278 9.69106 14.4613 9.84506 14.608C9.99906 14.7547 10.1787 14.828 10.3841 14.828C10.5894 14.828 10.7727 14.751 10.9341 14.597C11.0954 14.443 11.1761 14.2633 11.1761 14.058C11.1761 13.8527 11.0991 13.673 10.9451 13.519C10.7911 13.365 10.6041 13.288 10.3841 13.288Z" fill="#3E445A"/>
</g>
</svg>
