<svg width="23" height="23" viewBox="0 0 23 23" fill="none" xmlns="http://www.w3.org/2000/svg">
<path d="M11.3 0.370117C9.30538 0.370117 7.45738 0.868784 5.75605 1.86612C4.09872 2.84878 2.77872 4.16878 1.79605 5.82612C0.798716 7.52745 0.300049 9.37545 0.300049 11.3701C0.300049 13.3648 0.798716 15.2128 1.79605 16.9141C2.77872 18.5715 4.09872 19.8915 5.75605 20.8741C7.45738 21.8715 9.30538 22.3701 11.3 22.3701C13.2947 22.3701 15.1427 21.8715 16.844 20.8741C18.5014 19.8915 19.8214 18.5715 20.804 16.9141C21.8014 15.2128 22.3 13.3648 22.3 11.3701C22.3 9.37545 21.8014 7.52745 20.804 5.82612C19.8214 4.16878 18.5014 2.84878 16.844 1.86612C15.1427 0.868784 13.2947 0.370117 11.3 0.370117ZM11.3 21.0061C9.56938 21.0061 7.95605 20.5661 6.46005 19.6861C5.00805 18.8355 3.85672 17.6841 3.00605 16.2321C2.12605 14.7361 1.68605 13.1155 1.68605 11.3701C1.68605 9.62478 2.12605 8.00412 3.00605 6.50812C3.85672 5.05612 5.00805 3.90478 6.46005 3.05412C7.95605 2.17412 9.57305 1.73412 11.311 1.73412C13.049 1.73412 14.666 2.17412 16.162 3.05412C17.614 3.90478 18.7654 5.05612 19.616 6.50812C20.496 8.00412 20.936 9.62478 20.936 11.3701C20.936 13.1155 20.496 14.7361 19.616 16.2321C18.7654 17.6841 17.614 18.8355 16.162 19.6861C14.666 20.5661 13.0454 21.0061 11.3 21.0061ZM11.3 10.6881C10.7427 10.6881 10.2587 10.5525 9.84805 10.2811C9.43738 10.0098 9.23205 9.68712 9.23205 9.31312C9.23205 8.93912 9.43738 8.61645 9.84805 8.34512C10.2587 8.07378 10.7427 7.93812 11.3 7.93812C11.9454 7.93812 12.4807 8.11412 12.906 8.46612C13.0527 8.59812 13.2214 8.66045 13.412 8.65312C13.6027 8.64578 13.7604 8.56878 13.885 8.42212C14.0097 8.27545 14.0647 8.10678 14.05 7.91612C14.0354 7.72545 13.962 7.57145 13.83 7.45412C13.346 7.01412 12.73 6.73545 11.982 6.61812V5.87012C11.982 5.67945 11.916 5.51812 11.784 5.38612C11.652 5.25412 11.4907 5.18812 11.3 5.18812C11.1094 5.18812 10.948 5.25412 10.816 5.38612C10.684 5.51812 10.618 5.67945 10.618 5.87012V6.61812C9.82605 6.73545 9.16972 7.04712 8.64905 7.55312C8.12838 8.05912 7.86805 8.64212 7.86805 9.30212C7.86805 9.80078 8.02205 10.2591 8.33005 10.6771C8.63805 11.0951 9.05605 11.4288 9.58405 11.6781C10.112 11.9275 10.684 12.0521 11.3 12.0521C11.8574 12.0521 12.3414 12.1878 12.752 12.4591C13.1627 12.7305 13.368 13.0531 13.368 13.4271C13.368 13.8011 13.1627 14.1238 12.752 14.3951C12.3414 14.6665 11.8574 14.8021 11.3 14.8021C10.6547 14.8021 10.1194 14.6261 9.69405 14.2741C9.54738 14.1421 9.37872 14.0798 9.18805 14.0871C8.99738 14.0945 8.83972 14.1715 8.71505 14.3181C8.59038 14.4648 8.53538 14.6335 8.55005 14.8241C8.56472 15.0148 8.64538 15.1688 8.79205 15.2861C9.24672 15.7261 9.85538 16.0048 10.618 16.1221V16.8701C10.618 17.0608 10.684 17.2221 10.816 17.3541C10.948 17.4861 11.1094 17.5521 11.3 17.5521C11.4907 17.5521 11.652 17.4861 11.784 17.3541C11.916 17.2221 11.982 17.0608 11.982 16.8701V16.1221C12.774 16.0048 13.4304 15.6931 13.951 15.1871C14.4717 14.6811 14.732 14.0981 14.732 13.4381C14.732 12.9395 14.578 12.4811 14.27 12.0631C13.962 11.6451 13.544 11.3115 13.016 11.0621C12.488 10.8128 11.916 10.6881 11.3 10.6881Z" fill="#202435"/>
</svg>
