<svg width="42" height="43" viewBox="0 0 42 43" fill="none" xmlns="http://www.w3.org/2000/svg">
<rect x="0.5" y="1.12012" width="41" height="41" rx="20.5" stroke="#E4E5EE"/>
<g clip-path="url(#clip0_1_843)">
<path d="M26.22 24.2621C25.86 23.8781 25.437 23.6861 24.951 23.6861C24.465 23.6861 24.03 23.8781 23.646 24.2621L22.44 25.4681L22.044 25.2521C21.912 25.1921 21.822 25.1441 21.774 25.1081C20.646 24.3761 19.602 23.4281 18.642 22.2641C18.174 21.6521 17.832 21.1121 17.616 20.6441C17.904 20.3921 18.198 20.1041 18.498 19.7801L18.822 19.4561C19.218 19.0481 19.416 18.6071 19.416 18.1331C19.416 17.6591 19.218 17.2241 18.822 16.8281L17.778 15.7841C17.622 15.6281 17.508 15.5081 17.436 15.4241L17.256 15.2441C17.028 15.0041 16.848 14.8301 16.716 14.7221C16.344 14.3501 15.924 14.1641 15.456 14.1641C14.988 14.1641 14.556 14.3501 14.16 14.7221H14.142L12.846 16.0361C12.366 16.5161 12.096 17.1041 12.036 17.8001C11.952 18.6041 12.114 19.5401 12.522 20.6081C12.822 21.4361 13.209 22.2461 13.683 23.0381C14.157 23.8301 14.736 24.6401 15.42 25.4681C17.1 27.4601 19.086 29.0141 21.378 30.1301C22.614 30.7181 23.73 31.0481 24.726 31.1201H24.96C25.848 31.1201 26.58 30.8081 27.156 30.1841V30.1661C27.264 30.0341 27.438 29.8481 27.678 29.6081L27.822 29.4641C27.978 29.3321 28.146 29.1701 28.326 28.9781C28.71 28.5701 28.902 28.1261 28.902 27.6461C28.902 27.1661 28.704 26.7401 28.308 26.3681L26.22 24.2621ZM27.588 28.2761C27.528 28.3481 27.426 28.4501 27.282 28.5821L27.12 28.7441C26.844 28.9961 26.598 29.2481 26.382 29.5001C26.022 29.8961 25.548 30.0941 24.96 30.0941H24.78C23.904 30.0341 22.92 29.7401 21.828 29.2121C19.656 28.1561 17.784 26.6921 16.212 24.8201C15.564 24.0401 15.018 23.2811 14.574 22.5431C14.13 21.8051 13.764 21.0461 13.476 20.2661C13.296 19.7741 13.173 19.3391 13.107 18.9611C13.041 18.5831 13.026 18.2201 13.062 17.8721C13.098 17.4161 13.272 17.0441 13.584 16.7561L14.88 15.4601C15.06 15.2801 15.249 15.1901 15.447 15.1901C15.645 15.1901 15.834 15.2801 16.014 15.4601C16.122 15.5561 16.272 15.7061 16.464 15.9101L16.824 16.2701C16.932 16.3661 17.01 16.4441 17.058 16.5041L18.102 17.5481C18.498 17.9321 18.498 18.3221 18.102 18.7181C18.03 18.8021 17.922 18.9161 17.778 19.0601C17.358 19.4801 17.04 19.7861 16.824 19.9781L16.806 19.9961C16.566 20.2361 16.5 20.5241 16.608 20.8601V20.8961C16.872 21.5201 17.286 22.1861 17.85 22.8941C18.894 24.1901 20.016 25.2161 21.216 25.9721L21.792 26.2781C21.924 26.3381 22.014 26.3861 22.062 26.4221L22.116 26.4581C22.26 26.5181 22.38 26.5481 22.476 26.5481C22.692 26.5481 22.89 26.4581 23.07 26.2781L24.366 24.9821C24.558 24.7901 24.744 24.6941 24.924 24.6941C25.104 24.6941 25.29 24.7901 25.482 24.9821L27.588 27.0881C27.972 27.4601 27.972 27.8561 27.588 28.2761ZM21.72 17.4041C22.74 17.5721 23.613 18.0191 24.339 18.7451C25.065 19.4711 25.524 20.3501 25.716 21.3821C25.728 21.5021 25.782 21.6041 25.878 21.6881C25.974 21.7721 26.088 21.8141 26.22 21.8141L26.31 21.7961C26.442 21.7721 26.55 21.7031 26.634 21.5891C26.718 21.4751 26.748 21.3461 26.724 21.2021C26.628 20.6021 26.439 20.0321 26.157 19.4921C25.875 18.9521 25.518 18.4661 25.086 18.0341C24.654 17.6021 24.165 17.2451 23.619 16.9631C23.073 16.6811 22.5 16.4921 21.9 16.3961C21.768 16.3721 21.642 16.3991 21.522 16.4771C21.402 16.5551 21.33 16.6661 21.306 16.8101C21.282 16.9541 21.309 17.0831 21.387 17.1971C21.465 17.3111 21.576 17.3801 21.72 17.4041ZM29.982 21.0581C29.814 20.0621 29.499 19.1231 29.037 18.2411C28.575 17.3591 27.984 16.5581 27.264 15.8381C26.544 15.1181 25.743 14.5271 24.861 14.0651C23.979 13.6031 23.04 13.2881 22.044 13.1201C21.912 13.0961 21.786 13.1261 21.666 13.2101C21.546 13.2941 21.474 13.4051 21.45 13.5431C21.426 13.6811 21.456 13.8101 21.54 13.9301C21.624 14.0501 21.738 14.1221 21.882 14.1461C22.758 14.2901 23.595 14.5691 24.393 14.9831C25.191 15.3971 25.911 15.9221 26.553 16.5581C27.195 17.1941 27.72 17.9081 28.128 18.7001C28.536 19.4921 28.818 20.3321 28.974 21.2201C28.986 21.3401 29.04 21.4421 29.136 21.5261C29.232 21.6101 29.346 21.6521 29.478 21.6521H29.568C29.7 21.6281 29.808 21.5561 29.892 21.4361C29.976 21.3161 30.006 21.1901 29.982 21.0581Z" fill="#202435"/>
</g>
<defs>
<clipPath id="clip0_1_843">
<rect width="18" height="18" fill="white" transform="matrix(1 0 0 -1 12 31.1201)"/>
</clipPath>
</defs>
</svg>
