<svg width="18" height="19" viewBox="0 0 18 19" fill="none" xmlns="http://www.w3.org/2000/svg">
<path d="M14.22 11.2621C13.86 10.8781 13.437 10.6861 12.951 10.6861C12.465 10.6861 12.03 10.8781 11.646 11.2621L10.44 12.4681L10.044 12.2521C9.91201 12.1921 9.82201 12.1441 9.77401 12.1081C8.64601 11.3761 7.60201 10.4281 6.64201 9.26412C6.17401 8.65212 5.83201 8.11212 5.61601 7.64412C5.90401 7.39212 6.19801 7.10412 6.49801 6.78012L6.82201 6.45612C7.21801 6.04812 7.41601 5.60712 7.41601 5.13312C7.41601 4.65912 7.21801 4.22412 6.82201 3.82812L5.77801 2.78412C5.62201 2.62812 5.50801 2.50812 5.43601 2.42412L5.25601 2.24412C5.02801 2.00412 4.84801 1.83012 4.71601 1.72212C4.34401 1.35012 3.92401 1.16412 3.45601 1.16412C2.98801 1.16412 2.55601 1.35012 2.16001 1.72212H2.14201L0.846008 3.03612C0.366008 3.51612 0.096008 4.10412 0.036008 4.80012C-0.047992 5.60412 0.114008 6.54012 0.522008 7.60812C0.822008 8.43612 1.20901 9.24612 1.68301 10.0381C2.15701 10.8301 2.73601 11.6401 3.42001 12.4681C5.10001 14.4601 7.08601 16.0141 9.37801 17.1301C10.614 17.7181 11.73 18.0481 12.726 18.1201H12.96C13.848 18.1201 14.58 17.8081 15.156 17.1841V17.1661C15.264 17.0341 15.438 16.8481 15.678 16.6081L15.822 16.4641C15.978 16.3321 16.146 16.1701 16.326 15.9781C16.71 15.5701 16.902 15.1261 16.902 14.6461C16.902 14.1661 16.704 13.7401 16.308 13.3681L14.22 11.2621ZM15.588 15.2761C15.528 15.3481 15.426 15.4501 15.282 15.5821L15.12 15.7441C14.844 15.9961 14.598 16.2481 14.382 16.5001C14.022 16.8961 13.548 17.0941 12.96 17.0941H12.78C11.904 17.0341 10.92 16.7401 9.82801 16.2121C7.65601 15.1561 5.78401 13.6921 4.21201 11.8201C3.56401 11.0401 3.01801 10.2811 2.57401 9.54312C2.13001 8.80512 1.76401 8.04612 1.47601 7.26612C1.29601 6.77412 1.17301 6.33912 1.10701 5.96112C1.04101 5.58312 1.02601 5.22012 1.06201 4.87212C1.09801 4.41612 1.27201 4.04412 1.58401 3.75612L2.88001 2.46012C3.06001 2.28012 3.24901 2.19012 3.44701 2.19012C3.64501 2.19012 3.83401 2.28012 4.01401 2.46012C4.12201 2.55612 4.27201 2.70612 4.46401 2.91012L4.82401 3.27012C4.93201 3.36612 5.01001 3.44412 5.05801 3.50412L6.10201 4.54812C6.49801 4.93212 6.49801 5.32212 6.10201 5.71812C6.03001 5.80212 5.92201 5.91612 5.77801 6.06012C5.35801 6.48012 5.04001 6.78612 4.82401 6.97812L4.80601 6.99612C4.56601 7.23612 4.50001 7.52412 4.60801 7.86012V7.89612C4.87201 8.52012 5.28601 9.18612 5.85001 9.89412C6.89401 11.1901 8.01601 12.2161 9.21601 12.9721L9.79201 13.2781C9.92401 13.3381 10.014 13.3861 10.062 13.4221L10.116 13.4581C10.26 13.5181 10.38 13.5481 10.476 13.5481C10.692 13.5481 10.89 13.4581 11.07 13.2781L12.366 11.9821C12.558 11.7901 12.744 11.6941 12.924 11.6941C13.104 11.6941 13.29 11.7901 13.482 11.9821L15.588 14.0881C15.972 14.4601 15.972 14.8561 15.588 15.2761ZM9.72001 4.40412C10.74 4.57212 11.613 5.01912 12.339 5.74512C13.065 6.47112 13.524 7.35012 13.716 8.38212C13.728 8.50212 13.782 8.60412 13.878 8.68812C13.974 8.77212 14.088 8.81412 14.22 8.81412L14.31 8.79612C14.442 8.77212 14.55 8.70312 14.634 8.58912C14.718 8.47512 14.748 8.34612 14.724 8.20212C14.628 7.60212 14.439 7.03212 14.157 6.49212C13.875 5.95212 13.518 5.46612 13.086 5.03412C12.654 4.60212 12.165 4.24512 11.619 3.96312C11.073 3.68112 10.5 3.49212 9.90001 3.39612C9.76801 3.37212 9.64201 3.39912 9.52201 3.47712C9.40201 3.55512 9.33001 3.66612 9.30601 3.81012C9.28201 3.95412 9.30901 4.08312 9.38701 4.19712C9.46501 4.31112 9.57601 4.38012 9.72001 4.40412ZM17.982 8.05812C17.814 7.06212 17.499 6.12312 17.037 5.24112C16.575 4.35912 15.984 3.55812 15.264 2.83812C14.544 2.11812 13.743 1.52712 12.861 1.06512C11.979 0.603119 11.04 0.288118 10.044 0.120117C9.91201 0.096117 9.78601 0.126118 9.66601 0.210117C9.54601 0.294119 9.47401 0.405117 9.45001 0.543118C9.42601 0.681118 9.45601 0.810118 9.54001 0.930119C9.62401 1.05012 9.73801 1.12212 9.88201 1.14612C10.758 1.29012 11.595 1.56912 12.393 1.98312C13.191 2.39712 13.911 2.92212 14.553 3.55812C15.195 4.19412 15.72 4.90812 16.128 5.70012C16.536 6.49212 16.818 7.33212 16.974 8.22012C16.986 8.34012 17.04 8.44212 17.136 8.52612C17.232 8.61012 17.346 8.65212 17.478 8.65212H17.568C17.7 8.62812 17.808 8.55612 17.892 8.43612C17.976 8.31612 18.006 8.19012 17.982 8.05812Z" fill="#202435"/>
</svg>
