<svg width="17" height="17" viewBox="0 0 17 17" fill="none" xmlns="http://www.w3.org/2000/svg">
<path d="M16.69 15.28C16.522 14.356 16.21 13.492 15.754 12.688C15.298 11.884 14.71 11.194 13.99 10.618C13.366 10.078 12.634 9.646 11.794 9.322C12.37 8.878 12.826 8.32899 13.162 7.675C13.498 7.021 13.666 6.32199 13.666 5.578C13.666 4.71399 13.456 3.91899 13.036 3.193C12.616 2.467 12.043 1.894 11.317 1.474C10.591 1.054 9.796 0.843996 8.932 0.843996C8.068 0.843996 7.273 1.054 6.547 1.474C5.821 1.894 5.248 2.467 4.828 3.193C4.408 3.91899 4.198 4.71399 4.198 5.578C4.198 6.32199 4.366 7.021 4.702 7.675C5.038 8.32899 5.494 8.878 6.07 9.322C5.266 9.658 4.54 10.09 3.892 10.618C3.196 11.194 2.614 11.878 2.146 12.67C1.678 13.462 1.36 14.302 1.192 15.19L0.921997 16.612L2.47 16.918L2.758 15.514C2.89 14.782 3.139 14.104 3.505 13.48C3.871 12.856 4.342 12.307 4.918 11.833C5.494 11.359 6.127 10.999 6.817 10.753C7.507 10.507 8.212 10.384 8.932 10.384C9.652 10.384 10.366 10.51 11.074 10.762C11.782 11.014 12.412 11.368 12.964 11.824C13.54 12.304 14.014 12.865 14.386 13.507C14.758 14.149 15.004 14.83 15.124 15.55L15.394 16.954L16.924 16.648L16.69 15.28ZM8.932 2.41C9.508 2.41 10.039 2.551 10.525 2.833C11.011 3.115 11.395 3.499 11.677 3.98499C11.959 4.47099 12.1 5.002 12.1 5.578C12.1 6.154 11.959 6.685 11.677 7.17099C11.395 7.65699 11.011 8.041 10.525 8.323C10.039 8.60499 9.508 8.746 8.932 8.746C8.356 8.746 7.825 8.60499 7.339 8.323C6.853 8.041 6.469 7.65699 6.187 7.17099C5.905 6.685 5.764 6.154 5.764 5.578C5.764 5.002 5.905 4.47099 6.187 3.98499C6.469 3.499 6.853 3.115 7.339 2.833C7.825 2.551 8.356 2.41 8.932 2.41Z" fill="#3E445A"/>
</svg>
